<mxfile host="app.diagrams.net" modified="2021-05-14T15:53:39.387Z" agent="5.0 (X11; CrOS aarch64 13816.64.0) AppleWebKit/537.36 (KHTML, like Gecko) Chrome/90.0.4430.100 Safari/537.36" etag="CAiHjvfXp1Pc7OScjzzZ" version="14.6.13" type="github">
  <diagram id="opTzevJ5c5rDsMIliRwW" name="Page-1">
    <mxGraphModel dx="582" dy="383" grid="1" gridSize="10" guides="1" tooltips="1" connect="1" arrows="1" fold="1" page="1" pageScale="1" pageWidth="850" pageHeight="1100" math="0" shadow="0">
      <root>
        <mxCell id="0" />
        <mxCell id="1" parent="0" />
        <mxCell id="xXHmHQqa-5CR83J0aL3B-16" style="edgeStyle=orthogonalEdgeStyle;rounded=0;orthogonalLoop=1;jettySize=auto;html=1;exitX=0.5;exitY=1;exitDx=0;exitDy=0;entryX=0.5;entryY=0;entryDx=0;entryDy=0;" edge="1" parent="1" source="xXHmHQqa-5CR83J0aL3B-1" target="xXHmHQqa-5CR83J0aL3B-3">
          <mxGeometry relative="1" as="geometry" />
        </mxCell>
        <mxCell id="xXHmHQqa-5CR83J0aL3B-17" style="edgeStyle=orthogonalEdgeStyle;rounded=0;orthogonalLoop=1;jettySize=auto;html=1;exitX=0.5;exitY=1;exitDx=0;exitDy=0;entryX=0.5;entryY=0;entryDx=0;entryDy=0;" edge="1" parent="1" source="xXHmHQqa-5CR83J0aL3B-1" target="xXHmHQqa-5CR83J0aL3B-2">
          <mxGeometry relative="1" as="geometry" />
        </mxCell>
        <mxCell id="xXHmHQqa-5CR83J0aL3B-18" style="edgeStyle=orthogonalEdgeStyle;rounded=0;orthogonalLoop=1;jettySize=auto;html=1;exitX=0.5;exitY=1;exitDx=0;exitDy=0;entryX=0.5;entryY=0;entryDx=0;entryDy=0;" edge="1" parent="1" source="xXHmHQqa-5CR83J0aL3B-1" target="xXHmHQqa-5CR83J0aL3B-4">
          <mxGeometry relative="1" as="geometry" />
        </mxCell>
        <mxCell id="xXHmHQqa-5CR83J0aL3B-1" value="Perimeter of a Triangle" style="rounded=0;whiteSpace=wrap;html=1;" vertex="1" parent="1">
          <mxGeometry x="240" y="400" width="120" height="60" as="geometry" />
        </mxCell>
        <mxCell id="xXHmHQqa-5CR83J0aL3B-9" style="edgeStyle=orthogonalEdgeStyle;rounded=0;orthogonalLoop=1;jettySize=auto;html=1;exitX=0.5;exitY=1;exitDx=0;exitDy=0;entryX=0.5;entryY=0;entryDx=0;entryDy=0;" edge="1" parent="1" source="xXHmHQqa-5CR83J0aL3B-2" target="xXHmHQqa-5CR83J0aL3B-6">
          <mxGeometry relative="1" as="geometry" />
        </mxCell>
        <mxCell id="xXHmHQqa-5CR83J0aL3B-2" value="Input" style="rounded=0;whiteSpace=wrap;html=1;" vertex="1" parent="1">
          <mxGeometry x="90" y="500" width="120" height="60" as="geometry" />
        </mxCell>
        <mxCell id="xXHmHQqa-5CR83J0aL3B-13" style="edgeStyle=orthogonalEdgeStyle;rounded=0;orthogonalLoop=1;jettySize=auto;html=1;exitX=0.5;exitY=1;exitDx=0;exitDy=0;entryX=0.5;entryY=0;entryDx=0;entryDy=0;" edge="1" parent="1" source="xXHmHQqa-5CR83J0aL3B-3" target="xXHmHQqa-5CR83J0aL3B-12">
          <mxGeometry relative="1" as="geometry" />
        </mxCell>
        <mxCell id="xXHmHQqa-5CR83J0aL3B-3" value="Process" style="rounded=0;whiteSpace=wrap;html=1;" vertex="1" parent="1">
          <mxGeometry x="240" y="500" width="120" height="60" as="geometry" />
        </mxCell>
        <mxCell id="xXHmHQqa-5CR83J0aL3B-15" style="edgeStyle=orthogonalEdgeStyle;rounded=0;orthogonalLoop=1;jettySize=auto;html=1;exitX=0.5;exitY=1;exitDx=0;exitDy=0;entryX=0.5;entryY=0;entryDx=0;entryDy=0;" edge="1" parent="1" source="xXHmHQqa-5CR83J0aL3B-4" target="xXHmHQqa-5CR83J0aL3B-14">
          <mxGeometry relative="1" as="geometry" />
        </mxCell>
        <mxCell id="xXHmHQqa-5CR83J0aL3B-4" value="Output" style="rounded=0;whiteSpace=wrap;html=1;" vertex="1" parent="1">
          <mxGeometry x="390" y="500" width="120" height="60" as="geometry" />
        </mxCell>
        <mxCell id="xXHmHQqa-5CR83J0aL3B-10" style="edgeStyle=orthogonalEdgeStyle;rounded=0;orthogonalLoop=1;jettySize=auto;html=1;exitX=0.5;exitY=1;exitDx=0;exitDy=0;entryX=0.5;entryY=0;entryDx=0;entryDy=0;" edge="1" parent="1" source="xXHmHQqa-5CR83J0aL3B-6" target="xXHmHQqa-5CR83J0aL3B-7">
          <mxGeometry relative="1" as="geometry" />
        </mxCell>
        <mxCell id="xXHmHQqa-5CR83J0aL3B-6" value="Get side_1" style="rounded=0;whiteSpace=wrap;html=1;" vertex="1" parent="1">
          <mxGeometry x="90" y="600" width="120" height="60" as="geometry" />
        </mxCell>
        <mxCell id="xXHmHQqa-5CR83J0aL3B-11" style="edgeStyle=orthogonalEdgeStyle;rounded=0;orthogonalLoop=1;jettySize=auto;html=1;exitX=0.5;exitY=1;exitDx=0;exitDy=0;entryX=0.5;entryY=0;entryDx=0;entryDy=0;" edge="1" parent="1" source="xXHmHQqa-5CR83J0aL3B-7" target="xXHmHQqa-5CR83J0aL3B-8">
          <mxGeometry relative="1" as="geometry" />
        </mxCell>
        <mxCell id="xXHmHQqa-5CR83J0aL3B-7" value="Get side_2" style="rounded=0;whiteSpace=wrap;html=1;" vertex="1" parent="1">
          <mxGeometry x="90" y="700" width="120" height="60" as="geometry" />
        </mxCell>
        <mxCell id="xXHmHQqa-5CR83J0aL3B-8" value="Get side_3" style="rounded=0;whiteSpace=wrap;html=1;" vertex="1" parent="1">
          <mxGeometry x="90" y="800" width="120" height="60" as="geometry" />
        </mxCell>
        <mxCell id="xXHmHQqa-5CR83J0aL3B-12" value="Add side_1, side_2, side_3" style="rounded=0;whiteSpace=wrap;html=1;" vertex="1" parent="1">
          <mxGeometry x="240" y="600" width="120" height="60" as="geometry" />
        </mxCell>
        <mxCell id="xXHmHQqa-5CR83J0aL3B-14" value="Show answer" style="rounded=0;whiteSpace=wrap;html=1;" vertex="1" parent="1">
          <mxGeometry x="390" y="600" width="120" height="60" as="geometry" />
        </mxCell>
      </root>
    </mxGraphModel>
  </diagram>
</mxfile>
